<svg width="80" height="70" viewBox="0 0 80 70" fill="none" xmlns="http://www.w3.org/2000/svg">
<path fill-rule="evenodd" clip-rule="evenodd" d="M56.038 15H42.5781L41.7215 15.3671L40.1308 16.9333L38.5401 15.3671L37.6835 15H24.2236L23 16.2236V40.6962L24.2236 41.9198H37.1696L39.2743 44H40.9873L43.092 41.9198H56.038L57.2616 40.6962V16.2236L56.038 15ZM38.9072 40.2557L38.4667 39.8397L37.6835 39.4726H25.4473V17.4473H37.1696L38.9806 19.2582L38.9072 40.2557ZM54.8143 39.4726H42.5781L41.7215 39.8397L41.3789 40.1578V19.1603L43.092 17.4473H54.8143V39.4726ZM35.2363 22.3418H27.8945V24.789H35.2363V22.3418ZM35.2363 32.1308H27.8945V34.5781H35.2363V32.1308ZM27.8945 27.2363H35.2363V29.6835H27.8945V27.2363ZM52.3671 22.3418H45.0253V24.789H52.3671V22.3418ZM45.0253 27.2363H52.3671V29.6835H45.0253V27.2363ZM45.0253 32.1308H52.3671V34.5781H45.0253V32.1308Z" fill="white"/>
<path d="M18.5156 66.7227C15.0586 65.7461 12.4512 64.1348 10.6934 61.8887C8.95508 59.6621 8.08594 56.7129 8.08594 53.041V47.2109C8.08594 42.4648 6.01562 40.0918 1.875 40.0918V35.8438C6.01562 35.8438 8.08594 33.4805 8.08594 28.7539V22.6602C8.125 19.0859 8.99414 16.2051 10.6934 14.0176C12.4121 11.8105 15.0195 10.209 18.5156 9.21289L19.6289 12.582C15.5469 13.8906 13.5059 17.2988 13.5059 22.8066V28.7246C13.5059 33.1582 11.875 36.2441 8.61328 37.9824C11.875 39.7402 13.5059 42.8555 13.5059 47.3281V53.3633C13.5645 58.7344 15.6055 62.0645 19.6289 63.3535L18.5156 66.7227Z" fill="white"/>
<path d="M59.5566 63.3535C63.5215 62.084 65.5723 58.8516 65.709 53.6562V47.2109C65.709 42.6992 67.4766 39.623 71.0117 37.9824C67.4766 36.3809 65.709 33.3047 65.709 28.7539V22.8066C65.709 17.2988 63.668 13.8906 59.5859 12.582L60.6992 9.21289C64.1562 10.1895 66.7539 11.7813 68.4922 13.9883C70.2305 16.1758 71.1094 19.0762 71.1289 22.6895V28.8418C71.1289 33.5098 73.1992 35.8438 77.3398 35.8438V40.0918C73.1992 40.0918 71.1289 42.4648 71.1289 47.2109V53.1289C71.1289 56.8008 70.2402 59.7402 68.4629 61.9473C66.7051 64.1543 64.1172 65.7461 60.6992 66.7227L59.5566 63.3535Z" fill="white"/>
<path d="M27.2559 49.1592C27.2559 49.0127 27.2002 48.8994 27.0889 48.8193C26.9795 48.7373 26.7871 48.667 26.5117 48.6084C26.2383 48.5498 26.0205 48.4795 25.8584 48.3975C25.6982 48.3154 25.5791 48.2178 25.501 48.1045C25.4248 47.9912 25.3867 47.8564 25.3867 47.7002C25.3867 47.4404 25.4961 47.2207 25.7148 47.041C25.9355 46.8613 26.2168 46.7715 26.5586 46.7715C26.918 46.7715 27.209 46.8643 27.4316 47.0498C27.6562 47.2354 27.7686 47.4727 27.7686 47.7617H27.2236C27.2236 47.6133 27.1602 47.4854 27.0332 47.3779C26.9082 47.2705 26.75 47.2168 26.5586 47.2168C26.3613 47.2168 26.207 47.2598 26.0957 47.3457C25.9844 47.4316 25.9287 47.5439 25.9287 47.6826C25.9287 47.8135 25.9805 47.9121 26.084 47.9785C26.1875 48.0449 26.374 48.1084 26.6436 48.1689C26.915 48.2295 27.1348 48.3018 27.3027 48.3857C27.4707 48.4697 27.5947 48.5713 27.6748 48.6904C27.7568 48.8076 27.7979 48.9512 27.7979 49.1211C27.7979 49.4043 27.6846 49.6318 27.458 49.8037C27.2314 49.9736 26.9375 50.0586 26.5762 50.0586C26.3223 50.0586 26.0977 50.0137 25.9023 49.9238C25.707 49.834 25.5537 49.709 25.4424 49.5488C25.333 49.3867 25.2783 49.2119 25.2783 49.0244H25.8203C25.8301 49.2061 25.9023 49.3506 26.0371 49.458C26.1738 49.5635 26.3535 49.6162 26.5762 49.6162C26.7812 49.6162 26.9453 49.5752 27.0684 49.4932C27.1934 49.4092 27.2559 49.2979 27.2559 49.1592ZM28.3604 48.3857C28.3604 48.0752 28.4209 47.7959 28.542 47.5479C28.665 47.2998 28.835 47.1084 29.0518 46.9736C29.2705 46.8389 29.5195 46.7715 29.7988 46.7715C30.2305 46.7715 30.5791 46.9209 30.8447 47.2197C31.1123 47.5186 31.2461 47.916 31.2461 48.4121V48.4502C31.2461 48.7588 31.1865 49.0361 31.0674 49.2822C30.9502 49.5264 30.7812 49.7168 30.5605 49.8535C30.3418 49.9902 30.0898 50.0586 29.8047 50.0586C29.375 50.0586 29.0264 49.9092 28.7588 49.6104C28.4932 49.3115 28.3604 48.916 28.3604 48.4238V48.3857ZM28.9053 48.4502C28.9053 48.8018 28.9863 49.084 29.1484 49.2969C29.3125 49.5098 29.5312 49.6162 29.8047 49.6162C30.0801 49.6162 30.2988 49.5088 30.4609 49.2939C30.623 49.0771 30.7041 48.7744 30.7041 48.3857C30.7041 48.0381 30.6211 47.7568 30.4551 47.542C30.291 47.3252 30.0723 47.2168 29.7988 47.2168C29.5312 47.2168 29.3154 47.3232 29.1514 47.5361C28.9873 47.749 28.9053 48.0537 28.9053 48.4502ZM32.4355 46.8301L32.4502 47.1816C32.6826 46.9082 32.9961 46.7715 33.3906 46.7715C33.834 46.7715 34.1357 46.9414 34.2959 47.2812C34.4014 47.1289 34.5381 47.0059 34.7061 46.9121C34.876 46.8184 35.0762 46.7715 35.3066 46.7715C36.002 46.7715 36.3555 47.1396 36.3672 47.876V50H35.8252V47.9082C35.8252 47.6816 35.7734 47.5127 35.6699 47.4014C35.5664 47.2881 35.3926 47.2314 35.1484 47.2314C34.9473 47.2314 34.7803 47.292 34.6475 47.4131C34.5146 47.5322 34.4375 47.6934 34.416 47.8965V50H33.8711V47.9229C33.8711 47.4619 33.6455 47.2314 33.1943 47.2314C32.8389 47.2314 32.5957 47.3828 32.4648 47.6855V50H31.9229V46.8301H32.4355ZM38.5029 50.0586C38.0732 50.0586 37.7236 49.918 37.4541 49.6367C37.1846 49.3535 37.0498 48.9756 37.0498 48.5029V48.4033C37.0498 48.0889 37.1094 47.8086 37.2285 47.5625C37.3496 47.3145 37.5176 47.1211 37.7324 46.9824C37.9492 46.8418 38.1836 46.7715 38.4355 46.7715C38.8477 46.7715 39.168 46.9072 39.3965 47.1787C39.625 47.4502 39.7393 47.8389 39.7393 48.3447V48.5703H37.5918C37.5996 48.8828 37.6904 49.1357 37.8643 49.3291C38.04 49.5205 38.2627 49.6162 38.5322 49.6162C38.7236 49.6162 38.8857 49.5771 39.0186 49.499C39.1514 49.4209 39.2676 49.3174 39.3672 49.1885L39.6982 49.4463C39.4326 49.8545 39.0342 50.0586 38.5029 50.0586ZM38.4355 47.2168C38.2168 47.2168 38.0332 47.2969 37.8848 47.457C37.7363 47.6152 37.6445 47.8379 37.6094 48.125H39.1973V48.084C39.1816 47.8086 39.1074 47.5957 38.9746 47.4453C38.8418 47.293 38.6621 47.2168 38.4355 47.2168ZM41.1045 46.0625V46.8301H41.6963V47.249H41.1045V49.2148C41.1045 49.3418 41.1309 49.4375 41.1836 49.502C41.2363 49.5645 41.3262 49.5957 41.4531 49.5957C41.5156 49.5957 41.6016 49.584 41.7109 49.5605V50C41.5684 50.0391 41.4297 50.0586 41.2949 50.0586C41.0527 50.0586 40.8701 49.9854 40.7471 49.8389C40.624 49.6924 40.5625 49.4844 40.5625 49.2148V47.249H39.9854V46.8301H40.5625V46.0625H41.1045ZM42.874 47.2139C43.1143 46.9189 43.4268 46.7715 43.8115 46.7715C44.4814 46.7715 44.8193 47.1494 44.8252 47.9053V50H44.2832V47.9023C44.2812 47.6738 44.2285 47.5049 44.125 47.3955C44.0234 47.2861 43.8643 47.2314 43.6475 47.2314C43.4717 47.2314 43.3174 47.2783 43.1846 47.3721C43.0518 47.4658 42.9482 47.5889 42.874 47.7412V50H42.332V45.5H42.874V47.2139ZM46.2256 50H45.6836V46.8301H46.2256V50ZM45.6396 45.9893C45.6396 45.9014 45.666 45.8271 45.7188 45.7666C45.7734 45.7061 45.8535 45.6758 45.959 45.6758C46.0645 45.6758 46.1445 45.7061 46.1992 45.7666C46.2539 45.8271 46.2812 45.9014 46.2812 45.9893C46.2812 46.0771 46.2539 46.1504 46.1992 46.209C46.1445 46.2676 46.0645 46.2969 45.959 46.2969C45.8535 46.2969 45.7734 46.2676 45.7188 46.209C45.666 46.1504 45.6396 46.0771 45.6396 45.9893ZM47.6084 46.8301L47.626 47.2285C47.8682 46.9238 48.1846 46.7715 48.5752 46.7715C49.2451 46.7715 49.583 47.1494 49.5889 47.9053V50H49.0469V47.9023C49.0449 47.6738 48.9922 47.5049 48.8887 47.3955C48.7871 47.2861 48.6279 47.2314 48.4111 47.2314C48.2354 47.2314 48.0811 47.2783 47.9482 47.3721C47.8154 47.4658 47.7119 47.5889 47.6377 47.7412V50H47.0957V46.8301H47.6084ZM50.2773 48.3887C50.2773 47.8945 50.3916 47.502 50.6201 47.2109C50.8486 46.918 51.1514 46.7715 51.5283 46.7715C51.915 46.7715 52.2168 46.9082 52.4336 47.1816L52.46 46.8301H52.9551V49.9238C52.9551 50.334 52.833 50.6572 52.5889 50.8936C52.3467 51.1299 52.0205 51.248 51.6104 51.248C51.3818 51.248 51.1582 51.1992 50.9395 51.1016C50.7207 51.0039 50.5537 50.8701 50.4385 50.7002L50.7197 50.375C50.9521 50.6621 51.2363 50.8057 51.5723 50.8057C51.8359 50.8057 52.041 50.7314 52.1875 50.583C52.3359 50.4346 52.4102 50.2256 52.4102 49.9561V49.6836C52.1934 49.9336 51.8975 50.0586 51.5225 50.0586C51.1514 50.0586 50.8506 49.9092 50.6201 49.6104C50.3916 49.3115 50.2773 48.9043 50.2773 48.3887ZM50.8223 48.4502C50.8223 48.8076 50.8955 49.0889 51.042 49.2939C51.1885 49.4971 51.3936 49.5986 51.6572 49.5986C51.999 49.5986 52.25 49.4434 52.4102 49.1328V47.6855C52.2441 47.3828 51.9951 47.2314 51.6631 47.2314C51.3994 47.2314 51.1934 47.334 51.0449 47.5391C50.8965 47.7441 50.8223 48.0479 50.8223 48.4502Z" fill="white"/>
<path d="M34.3672 55C34.3359 54.9375 34.3105 54.8262 34.291 54.666C34.0391 54.9277 33.7383 55.0586 33.3887 55.0586C33.0762 55.0586 32.8193 54.9707 32.6182 54.7949C32.4189 54.6172 32.3193 54.3926 32.3193 54.1211C32.3193 53.791 32.4443 53.5352 32.6943 53.3535C32.9463 53.1699 33.2998 53.0781 33.7549 53.0781H34.2822V52.8291C34.2822 52.6396 34.2256 52.4893 34.1123 52.3779C33.999 52.2646 33.832 52.208 33.6113 52.208C33.418 52.208 33.2559 52.2568 33.125 52.3545C32.9941 52.4521 32.9287 52.5703 32.9287 52.709H32.3838C32.3838 52.5508 32.4395 52.3984 32.5508 52.252C32.6641 52.1035 32.8164 51.9863 33.0078 51.9004C33.2012 51.8145 33.4131 51.7715 33.6436 51.7715C34.0088 51.7715 34.2949 51.8633 34.502 52.0469C34.709 52.2285 34.8164 52.4795 34.8242 52.7998V54.2588C34.8242 54.5498 34.8613 54.7812 34.9355 54.9531V55H34.3672ZM33.4678 54.5869C33.6377 54.5869 33.7988 54.543 33.9512 54.4551C34.1035 54.3672 34.2139 54.2529 34.2822 54.1123V53.4619H33.8574C33.1934 53.4619 32.8613 53.6562 32.8613 54.0449C32.8613 54.2148 32.918 54.3477 33.0312 54.4434C33.1445 54.5391 33.29 54.5869 33.4678 54.5869ZM38.3574 53.4502C38.3574 53.9346 38.2461 54.3242 38.0234 54.6191C37.8008 54.9121 37.502 55.0586 37.127 55.0586C36.7266 55.0586 36.417 54.917 36.1982 54.6338L36.1719 55H35.6738V50.5H36.2158V52.1787C36.4346 51.9072 36.7363 51.7715 37.1211 51.7715C37.5059 51.7715 37.8076 51.917 38.0264 52.208C38.2471 52.499 38.3574 52.8975 38.3574 53.4033V53.4502ZM37.8154 53.3887C37.8154 53.0195 37.7441 52.7344 37.6016 52.5332C37.459 52.332 37.2539 52.2314 36.9863 52.2314C36.6289 52.2314 36.3721 52.3975 36.2158 52.7295V54.1006C36.3818 54.4326 36.6406 54.5986 36.9922 54.5986C37.252 54.5986 37.4541 54.498 37.5986 54.2969C37.7432 54.0957 37.8154 53.793 37.8154 53.3887ZM38.8994 53.3857C38.8994 53.0752 38.96 52.7959 39.0811 52.5479C39.2041 52.2998 39.374 52.1084 39.5908 51.9736C39.8096 51.8389 40.0586 51.7715 40.3379 51.7715C40.7695 51.7715 41.1182 51.9209 41.3838 52.2197C41.6514 52.5186 41.7852 52.916 41.7852 53.4121V53.4502C41.7852 53.7588 41.7256 54.0361 41.6064 54.2822C41.4893 54.5264 41.3203 54.7168 41.0996 54.8535C40.8809 54.9902 40.6289 55.0586 40.3438 55.0586C39.9141 55.0586 39.5654 54.9092 39.2979 54.6104C39.0322 54.3115 38.8994 53.916 38.8994 53.4238V53.3857ZM39.4443 53.4502C39.4443 53.8018 39.5254 54.084 39.6875 54.2969C39.8516 54.5098 40.0703 54.6162 40.3438 54.6162C40.6191 54.6162 40.8379 54.5088 41 54.2939C41.1621 54.0771 41.2432 53.7744 41.2432 53.3857C41.2432 53.0381 41.1602 52.7568 40.9941 52.542C40.8301 52.3252 40.6113 52.2168 40.3379 52.2168C40.0703 52.2168 39.8545 52.3232 39.6904 52.5361C39.5264 52.749 39.4443 53.0537 39.4443 53.4502ZM44.4219 54.6865C44.2109 54.9346 43.9014 55.0586 43.4932 55.0586C43.1553 55.0586 42.8975 54.9609 42.7197 54.7656C42.5439 54.5684 42.4551 54.2773 42.4531 53.8926V51.8301H42.9951V53.8779C42.9951 54.3584 43.1904 54.5986 43.5811 54.5986C43.9951 54.5986 44.2705 54.4443 44.4072 54.1357V51.8301H44.9492V55H44.4336L44.4219 54.6865ZM46.5107 51.0625V51.8301H47.1025V52.249H46.5107V54.2148C46.5107 54.3418 46.5371 54.4375 46.5898 54.502C46.6426 54.5645 46.7324 54.5957 46.8594 54.5957C46.9219 54.5957 47.0078 54.584 47.1172 54.5605V55C46.9746 55.0391 46.8359 55.0586 46.7012 55.0586C46.459 55.0586 46.2764 54.9854 46.1533 54.8389C46.0303 54.6924 45.9688 54.4844 45.9688 54.2148V52.249H45.3916V51.8301H45.9688V51.0625H46.5107Z" fill="white"/>
<path d="M25.0879 58.4502C25.0879 58.9326 24.9775 59.3213 24.7568 59.6162C24.5361 59.9111 24.2373 60.0586 23.8604 60.0586C23.4756 60.0586 23.1729 59.9365 22.9521 59.6924V61.2188H22.4102V56.8301H22.9053L22.9316 57.1816C23.1523 56.9082 23.459 56.7715 23.8516 56.7715C24.2324 56.7715 24.5332 56.915 24.7539 57.2021C24.9766 57.4893 25.0879 57.8887 25.0879 58.4004V58.4502ZM24.5459 58.3887C24.5459 58.0312 24.4697 57.749 24.3174 57.542C24.165 57.335 23.9561 57.2314 23.6904 57.2314C23.3623 57.2314 23.1162 57.377 22.9521 57.668V59.1826C23.1143 59.4717 23.3623 59.6162 23.6963 59.6162C23.9561 59.6162 24.1621 59.5137 24.3145 59.3086C24.4688 59.1016 24.5459 58.7949 24.5459 58.3887ZM27.3115 57.3164C27.2295 57.3027 27.1406 57.2959 27.0449 57.2959C26.6895 57.2959 26.4482 57.4473 26.3213 57.75V60H25.7793V56.8301H26.3066L26.3154 57.1963C26.4932 56.9131 26.7451 56.7715 27.0713 56.7715C27.1768 56.7715 27.2568 56.7852 27.3115 56.8125V57.3164ZM27.6104 58.3857C27.6104 58.0752 27.6709 57.7959 27.792 57.5479C27.915 57.2998 28.085 57.1084 28.3018 56.9736C28.5205 56.8389 28.7695 56.7715 29.0488 56.7715C29.4805 56.7715 29.8291 56.9209 30.0947 57.2197C30.3623 57.5186 30.4961 57.916 30.4961 58.4121V58.4502C30.4961 58.7588 30.4365 59.0361 30.3174 59.2822C30.2002 59.5264 30.0312 59.7168 29.8105 59.8535C29.5918 59.9902 29.3398 60.0586 29.0547 60.0586C28.625 60.0586 28.2764 59.9092 28.0088 59.6104C27.7432 59.3115 27.6104 58.916 27.6104 58.4238V58.3857ZM28.1553 58.4502C28.1553 58.8018 28.2363 59.084 28.3984 59.2969C28.5625 59.5098 28.7812 59.6162 29.0547 59.6162C29.3301 59.6162 29.5488 59.5088 29.7109 59.2939C29.873 59.0771 29.9541 58.7744 29.9541 58.3857C29.9541 58.0381 29.8711 57.7568 29.7051 57.542C29.541 57.3252 29.3223 57.2168 29.0488 57.2168C28.7812 57.2168 28.5654 57.3232 28.4014 57.5361C28.2373 57.749 28.1553 58.0537 28.1553 58.4502ZM31.0469 58.3887C31.0469 57.8945 31.1611 57.502 31.3896 57.2109C31.6182 56.918 31.9209 56.7715 32.2979 56.7715C32.6846 56.7715 32.9863 56.9082 33.2031 57.1816L33.2295 56.8301H33.7246V59.9238C33.7246 60.334 33.6025 60.6572 33.3584 60.8936C33.1162 61.1299 32.79 61.248 32.3799 61.248C32.1514 61.248 31.9277 61.1992 31.709 61.1016C31.4902 61.0039 31.3232 60.8701 31.208 60.7002L31.4893 60.375C31.7217 60.6621 32.0059 60.8057 32.3418 60.8057C32.6055 60.8057 32.8105 60.7314 32.957 60.583C33.1055 60.4346 33.1797 60.2256 33.1797 59.9561V59.6836C32.9629 59.9336 32.667 60.0586 32.292 60.0586C31.9209 60.0586 31.6201 59.9092 31.3896 59.6104C31.1611 59.3115 31.0469 58.9043 31.0469 58.3887ZM31.5918 58.4502C31.5918 58.8076 31.665 59.0889 31.8115 59.2939C31.958 59.4971 32.1631 59.5986 32.4268 59.5986C32.7686 59.5986 33.0195 59.4434 33.1797 59.1328V57.6855C33.0137 57.3828 32.7646 57.2314 32.4326 57.2314C32.1689 57.2314 31.9629 57.334 31.8145 57.5391C31.666 57.7441 31.5918 58.0479 31.5918 58.4502ZM36.0771 57.3164C35.9951 57.3027 35.9062 57.2959 35.8105 57.2959C35.4551 57.2959 35.2139 57.4473 35.0869 57.75V60H34.5449V56.8301H35.0723L35.0811 57.1963C35.2588 56.9131 35.5107 56.7715 35.8369 56.7715C35.9424 56.7715 36.0225 56.7852 36.0771 56.8125V57.3164ZM38.418 60C38.3867 59.9375 38.3613 59.8262 38.3418 59.666C38.0898 59.9277 37.7891 60.0586 37.4395 60.0586C37.127 60.0586 36.8701 59.9707 36.6689 59.7949C36.4697 59.6172 36.3701 59.3926 36.3701 59.1211C36.3701 58.791 36.4951 58.5352 36.7451 58.3535C36.9971 58.1699 37.3506 58.0781 37.8057 58.0781H38.333V57.8291C38.333 57.6396 38.2764 57.4893 38.1631 57.3779C38.0498 57.2646 37.8828 57.208 37.6621 57.208C37.4688 57.208 37.3066 57.2568 37.1758 57.3545C37.0449 57.4521 36.9795 57.5703 36.9795 57.709H36.4346C36.4346 57.5508 36.4902 57.3984 36.6016 57.252C36.7148 57.1035 36.8672 56.9863 37.0586 56.9004C37.252 56.8145 37.4639 56.7715 37.6943 56.7715C38.0596 56.7715 38.3457 56.8633 38.5527 57.0469C38.7598 57.2285 38.8672 57.4795 38.875 57.7998V59.2588C38.875 59.5498 38.9121 59.7812 38.9863 59.9531V60H38.418ZM37.5186 59.5869C37.6885 59.5869 37.8496 59.543 38.002 59.4551C38.1543 59.3672 38.2646 59.2529 38.333 59.1123V58.4619H37.9082C37.2441 58.4619 36.9121 58.6562 36.9121 59.0449C36.9121 59.2148 36.9688 59.3477 37.082 59.4434C37.1953 59.5391 37.3408 59.5869 37.5186 59.5869ZM40.2344 56.8301L40.249 57.1816C40.4814 56.9082 40.7949 56.7715 41.1895 56.7715C41.6328 56.7715 41.9346 56.9414 42.0947 57.2812C42.2002 57.1289 42.3369 57.0059 42.5049 56.9121C42.6748 56.8184 42.875 56.7715 43.1055 56.7715C43.8008 56.7715 44.1543 57.1396 44.166 57.876V60H43.624V57.9082C43.624 57.6816 43.5723 57.5127 43.4688 57.4014C43.3652 57.2881 43.1914 57.2314 42.9473 57.2314C42.7461 57.2314 42.5791 57.292 42.4463 57.4131C42.3135 57.5322 42.2363 57.6934 42.2148 57.8965V60H41.6699V57.9229C41.6699 57.4619 41.4443 57.2314 40.9932 57.2314C40.6377 57.2314 40.3945 57.3828 40.2637 57.6855V60H39.7217V56.8301H40.2344ZM45.4961 56.8301L45.5107 57.1816C45.7432 56.9082 46.0566 56.7715 46.4512 56.7715C46.8945 56.7715 47.1963 56.9414 47.3564 57.2812C47.4619 57.1289 47.5986 57.0059 47.7666 56.9121C47.9365 56.8184 48.1367 56.7715 48.3672 56.7715C49.0625 56.7715 49.416 57.1396 49.4277 57.876V60H48.8857V57.9082C48.8857 57.6816 48.834 57.5127 48.7305 57.4014C48.627 57.2881 48.4531 57.2314 48.209 57.2314C48.0078 57.2314 47.8408 57.292 47.708 57.4131C47.5752 57.5322 47.498 57.6934 47.4766 57.8965V60H46.9316V57.9229C46.9316 57.4619 46.7061 57.2314 46.2549 57.2314C45.8994 57.2314 45.6562 57.3828 45.5254 57.6855V60H44.9834V56.8301H45.4961ZM50.8369 60H50.2949V56.8301H50.8369V60ZM50.251 55.9893C50.251 55.9014 50.2773 55.8271 50.3301 55.7666C50.3848 55.7061 50.4648 55.6758 50.5703 55.6758C50.6758 55.6758 50.7559 55.7061 50.8105 55.7666C50.8652 55.8271 50.8926 55.9014 50.8926 55.9893C50.8926 56.0771 50.8652 56.1504 50.8105 56.209C50.7559 56.2676 50.6758 56.2969 50.5703 56.2969C50.4648 56.2969 50.3848 56.2676 50.3301 56.209C50.2773 56.1504 50.251 56.0771 50.251 55.9893ZM52.2197 56.8301L52.2373 57.2285C52.4795 56.9238 52.7959 56.7715 53.1865 56.7715C53.8564 56.7715 54.1943 57.1494 54.2002 57.9053V60H53.6582V57.9023C53.6562 57.6738 53.6035 57.5049 53.5 57.3955C53.3984 57.2861 53.2393 57.2314 53.0225 57.2314C52.8467 57.2314 52.6924 57.2783 52.5596 57.3721C52.4268 57.4658 52.3232 57.5889 52.249 57.7412V60H51.707V56.8301H52.2197ZM54.8887 58.3887C54.8887 57.8945 55.0029 57.502 55.2314 57.2109C55.46 56.918 55.7627 56.7715 56.1396 56.7715C56.5264 56.7715 56.8281 56.9082 57.0449 57.1816L57.0713 56.8301H57.5664V59.9238C57.5664 60.334 57.4443 60.6572 57.2002 60.8936C56.958 61.1299 56.6318 61.248 56.2217 61.248C55.9932 61.248 55.7695 61.1992 55.5508 61.1016C55.332 61.0039 55.165 60.8701 55.0498 60.7002L55.3311 60.375C55.5635 60.6621 55.8477 60.8057 56.1836 60.8057C56.4473 60.8057 56.6523 60.7314 56.7988 60.583C56.9473 60.4346 57.0215 60.2256 57.0215 59.9561V59.6836C56.8047 59.9336 56.5088 60.0586 56.1338 60.0586C55.7627 60.0586 55.4619 59.9092 55.2314 59.6104C55.0029 59.3115 54.8887 58.9043 54.8887 58.3887ZM55.4336 58.4502C55.4336 58.8076 55.5068 59.0889 55.6533 59.2939C55.7998 59.4971 56.0049 59.5986 56.2686 59.5986C56.6104 59.5986 56.8613 59.4434 57.0215 59.1328V57.6855C56.8555 57.3828 56.6064 57.2314 56.2744 57.2314C56.0107 57.2314 55.8047 57.334 55.6562 57.5391C55.5078 57.7441 55.4336 58.0479 55.4336 58.4502Z" fill="white"/>
</svg>
