<svg width="74" height="64" viewBox="0 0 74 64" fill="none" xmlns="http://www.w3.org/2000/svg">
<path d="M36.0037 44.9814C34.1196 46.5859 32.0189 47.8225 29.7015 48.6909C27.3841 49.5405 24.9727 49.9651 22.4669 49.9651C20.5452 49.9651 18.6895 49.7104 16.8997 49.2006C15.1287 48.7098 13.4708 48.0113 11.9258 47.1052C10.381 46.1802 8.96794 45.0852 7.68681 43.8203C6.40568 42.5366 5.31294 41.1207 4.40861 39.5727C3.50428 38.0058 2.79778 36.3257 2.28909 34.5324C1.79924 32.739 1.55432 30.8794 1.55432 28.9538C1.55432 27.0283 1.79924 25.1783 2.28909 23.4037C2.79778 21.6291 3.50428 19.9679 4.40861 18.4199C5.31294 16.853 6.40568 15.4371 7.68681 14.1723C8.96794 12.8886 10.381 11.7936 11.9258 10.8875C13.4708 9.98135 15.1287 9.28286 16.8997 8.79203C18.6895 8.28233 20.5452 8.02747 22.4669 8.02747C24.9727 8.02747 27.3841 8.46167 29.7015 9.33006C32.0189 10.1796 34.1196 11.4066 36.0037 13.0113L31.7646 20.0906C30.5399 18.8446 29.1269 17.8724 27.5255 17.1739C25.9242 16.4565 24.2379 16.0979 22.4669 16.0979C20.696 16.0979 19.0286 16.4377 17.4649 17.1173C15.92 17.7969 14.5635 18.7219 13.3954 19.8924C12.2273 21.0439 11.3041 22.4031 10.6259 23.9699C9.94763 25.5179 9.60851 27.1792 9.60851 28.9538C9.60851 30.7473 9.94763 32.4275 10.6259 33.9943C11.3041 35.5612 12.2273 36.9298 13.3954 38.1003C14.5635 39.2707 15.92 40.1957 17.4649 40.8755C19.0286 41.555 20.696 41.8947 22.4669 41.8947C23.4843 41.8947 24.4733 41.7721 25.4343 41.5266C26.3951 41.2812 27.3089 40.9415 28.1756 40.5072V28.9538H36.0037V44.9814ZM39.8753 20.6569C39.8753 18.9768 40.1956 17.4004 40.8362 15.9279C41.4768 14.4555 42.3433 13.1718 43.4361 12.0768C44.5476 10.963 45.8382 10.0852 47.3077 9.44334C48.7774 8.80147 50.3504 8.48054 52.0272 8.48054H70.6225V16.6076H52.0272C51.462 16.6076 50.9345 16.7114 50.4446 16.9191C49.9548 17.1267 49.5215 17.4193 49.1447 17.7969C48.7867 18.1556 48.5041 18.5803 48.2968 19.0712C48.0897 19.562 47.9859 20.0906 47.9859 20.6569C47.9859 21.2233 48.0897 21.7612 48.2968 22.2709C48.5041 22.7618 48.7867 23.1959 49.1447 23.5735C49.5215 23.9322 49.9548 24.2154 50.4446 24.4231C50.9345 24.6308 51.462 24.7346 52.0272 24.7346H60.138C61.8146 24.7346 63.3878 25.0554 64.8575 25.6973C66.3458 26.3203 67.6364 27.1888 68.7291 28.3025C69.8407 29.3975 70.7072 30.6905 71.329 32.182C71.9695 33.6544 72.2899 35.2308 72.2899 36.911C72.2899 38.5911 71.9695 40.1675 71.329 41.6399C70.7072 43.1123 69.8407 44.4056 68.7291 45.5193C67.6364 46.6143 66.3458 47.4828 64.8575 48.1246C63.3878 48.7665 61.8146 49.0873 60.138 49.0873H42.1362V40.9604H60.138C60.7032 40.9604 61.2307 40.8564 61.7205 40.6489C62.2104 40.4411 62.6342 40.158 62.9922 39.7993C63.369 39.4217 63.6611 38.9876 63.8682 38.4967C64.0755 38.0058 64.1791 37.4772 64.1791 36.911C64.1791 36.3447 64.0755 35.8159 63.8682 35.3253C63.6611 34.8344 63.369 34.4096 62.9922 34.0509C62.6342 33.6733 62.2104 33.3808 61.7205 33.1731C61.2307 32.9653 60.7032 32.8616 60.138 32.8616H52.0272C50.3504 32.8616 48.7774 32.5407 47.3077 31.8989C45.8382 31.257 44.5476 30.3886 43.4361 29.2937C42.3433 28.1798 41.4768 26.8866 40.8362 25.4142C40.1956 23.9229 39.8753 22.337 39.8753 20.6569Z" fill="white"/>
<path d="M7.58046 57.34C7.58046 57.6671 7.53759 57.9827 7.45187 58.2866C7.36944 58.5873 7.25075 58.8696 7.09578 59.1339C6.94084 59.3948 6.75619 59.6345 6.54188 59.8526C6.32759 60.0672 6.08853 60.2523 5.82478 60.4075C5.56102 60.5628 5.27747 60.6833 4.97415 60.7693C4.67412 60.8519 4.3609 60.8932 4.0345 60.8932H1.89801V53.7869H4.0345C4.3609 53.7869 4.67412 53.83 4.97415 53.9157C5.27747 53.9983 5.56102 54.1172 5.82478 54.2726C6.08853 54.4279 6.32759 54.6145 6.54188 54.8326C6.75619 55.0474 6.94084 55.2868 7.09578 55.5511C7.25075 55.8121 7.36944 56.0946 7.45187 56.3984C7.53759 56.6992 7.58046 57.013 7.58046 57.34ZM6.16109 57.34C6.16109 57.0461 6.10503 56.7702 5.99293 56.5126C5.88412 56.2547 5.73247 56.0302 5.53794 55.8386C5.34671 55.6437 5.12087 55.49 4.8604 55.3778C4.60322 55.2653 4.32793 55.2092 4.0345 55.2092H3.32728V59.4709H4.0345C4.32793 59.4709 4.60322 59.4164 4.8604 59.3074C5.12087 59.195 5.34671 59.0432 5.53794 58.8516C5.73247 58.6565 5.88412 58.4303 5.99293 58.1726C6.10503 57.9117 6.16109 57.6341 6.16109 57.34ZM13.3865 60.8932H8.52506V53.7869H13.3865V55.2092H9.94443V56.6315H12.2738V58.0537H9.94443V59.4709H13.3865V60.8932ZM19.8009 53.7869L17.4716 60.8932H16.0522L13.7327 53.7869H15.345L16.7594 58.5293L18.1788 53.7869H19.8009ZM25.3448 60.8932H20.4834V53.7869H25.3448V55.2092H21.9028V56.6315H24.2321V58.0537H21.9028V59.4709H25.3448V60.8932ZM31.3043 60.8932H26.3389V53.7869H27.7583V59.4709H31.3043V60.8932ZM38.7473 57.3698C38.7473 57.7068 38.7029 58.0322 38.6138 58.346C38.528 58.6565 38.406 58.9489 38.2479 59.2231C38.0896 59.4941 37.8984 59.7418 37.6741 59.9665C37.45 60.1912 37.2026 60.3845 36.9322 60.5462C36.6619 60.7049 36.3702 60.8271 36.057 60.913C35.7437 61.0021 35.419 61.0468 35.0826 61.0468C34.7463 61.0468 34.4216 61.0021 34.1084 60.913C33.7984 60.8271 33.5067 60.7049 33.2331 60.5462C32.9627 60.3845 32.7155 60.1912 32.4912 59.9665C32.2669 59.7418 32.0741 59.4941 31.9126 59.2231C31.7543 58.9489 31.6307 58.6565 31.5416 58.346C31.456 58.0322 31.413 57.7068 31.413 57.3698C31.413 57.0329 31.456 56.7075 31.5416 56.3935C31.6307 56.0797 31.7543 55.7872 31.9126 55.5165C32.0741 55.2456 32.2669 54.9977 32.4912 54.7732C32.7155 54.5484 32.9627 54.3569 33.2331 54.1982C33.5067 54.0398 33.7984 53.9174 34.1084 53.8316C34.4216 53.7423 34.7463 53.6978 35.0826 53.6978C35.419 53.6978 35.7437 53.7423 36.057 53.8316C36.3702 53.9174 36.6619 54.0398 36.9322 54.1982C37.2026 54.3569 37.45 54.5484 37.6741 54.7732C37.8984 54.9977 38.0896 55.2456 38.2479 55.5165C38.406 55.7872 38.528 56.0797 38.6138 56.3935C38.7029 56.7075 38.7473 57.0329 38.7473 57.3698ZM37.3378 57.3698C37.3378 57.0592 37.2785 56.7669 37.1598 56.4927C37.0412 56.2151 36.8795 55.9757 36.6751 55.7742C36.474 55.5693 36.235 55.4074 35.958 55.2885C35.6844 55.1696 35.3925 55.1102 35.0826 55.1102C34.7695 55.1102 34.476 55.1696 34.2023 55.2885C33.9286 55.4074 33.6897 55.5693 33.4852 55.7742C33.2808 55.9757 33.1194 56.2151 33.0005 56.4927C32.8819 56.7669 32.8225 57.0592 32.8225 57.3698C32.8225 57.6803 32.8819 57.9728 33.0005 58.247C33.1194 58.5179 33.2808 58.7557 33.4852 58.9605C33.6897 59.1654 33.9286 59.3271 34.2023 59.4462C34.476 59.5651 34.7695 59.6245 35.0826 59.6245C35.3925 59.6245 35.6844 59.5651 35.958 59.4462C36.235 59.3271 36.474 59.1654 36.6751 58.9605C36.8795 58.7557 37.0412 58.5179 37.1598 58.247C37.2785 57.9728 37.3378 57.6803 37.3378 57.3698ZM41.1014 55.2092V58.0537H42.5207C42.7154 58.0537 42.8983 58.0173 43.0697 57.9446C43.2412 57.8686 43.3911 57.7663 43.5199 57.6374C43.6485 57.5086 43.7489 57.3582 43.8215 57.1865C43.8973 57.0113 43.9352 56.8264 43.9352 56.6315C43.9352 56.4366 43.8973 56.253 43.8215 56.0813C43.7489 55.9063 43.6485 55.7543 43.5199 55.6255C43.3911 55.4966 43.2412 55.3958 43.0697 55.3231C42.8983 55.2473 42.7154 55.2092 42.5207 55.2092H41.1014ZM41.1014 60.8932H39.682V53.7869H42.5207C42.7813 53.7869 43.0319 53.8217 43.2725 53.891C43.5133 53.9571 43.7373 54.0528 43.9451 54.1785C44.1561 54.3007 44.3473 54.4494 44.5189 54.6245C44.6935 54.7962 44.842 54.9878 44.9639 55.1992C45.0892 55.4107 45.1849 55.6371 45.2508 55.8782C45.3199 56.1192 45.3546 56.3705 45.3546 56.6315C45.3546 57.0213 45.2804 57.3895 45.132 57.7364C44.9838 58.0801 44.781 58.3808 44.5236 58.6384C44.2665 58.8961 43.9649 59.0993 43.6187 59.248C43.2758 59.3965 42.9099 59.4709 42.5207 59.4709H41.1014V60.8932ZM53.2279 60.8932H51.8135V55.8187C51.8135 55.7195 51.7936 55.6271 51.7541 55.5412C51.7178 55.4552 51.6667 55.3811 51.6008 55.3181C51.5381 55.252 51.4639 55.2009 51.3784 55.1646C51.2926 55.1282 51.2002 55.1102 51.1014 55.1102C51.0024 55.1102 50.9102 55.1282 50.8244 55.1646C50.7386 55.2009 50.6627 55.252 50.5968 55.3181C50.5342 55.3811 50.4848 55.4552 50.4486 55.5412C50.4122 55.6271 50.394 55.7195 50.394 55.8187V60.8932H48.9748V55.8187C48.9748 55.7195 48.9566 55.6271 48.9202 55.5412C48.8841 55.4552 48.833 55.3811 48.7671 55.3181C48.7044 55.252 48.6302 55.2009 48.5444 55.1646C48.4587 55.1282 48.3665 55.1102 48.2675 55.1102C48.1687 55.1102 48.0763 55.1282 47.9905 55.1646C47.9049 55.2009 47.829 55.252 47.7631 55.3181C47.7005 55.3811 47.6511 55.4552 47.6147 55.5412C47.5785 55.6271 47.5603 55.7195 47.5603 55.8187V60.8932H46.1409V55.8187C46.1409 55.5246 46.1953 55.2489 46.3042 54.9911C46.4162 54.7301 46.5679 54.5039 46.7591 54.3123C46.9536 54.1172 47.1796 53.9654 47.4367 53.8563C47.6972 53.744 47.9741 53.6879 48.2675 53.6879C48.5312 53.6879 48.785 53.7357 49.0292 53.8316C49.2731 53.924 49.4924 54.0594 49.6869 54.238C49.8814 54.0594 50.0991 53.924 50.3397 53.8316C50.5836 53.7357 50.8376 53.6879 51.1014 53.6879C51.3947 53.6879 51.67 53.744 51.9272 53.8563C52.1876 53.9654 52.4135 54.1172 52.6047 54.3123C52.7992 54.5039 52.951 54.7301 53.0597 54.9911C53.1719 55.2489 53.2279 55.5246 53.2279 55.8187V60.8932ZM59.3604 60.8932H54.499V53.7869H59.3604V55.2092H55.9182V56.6315H58.2475V58.0537H55.9182V59.4709H59.3604V60.8932ZM66.027 60.8932H64.5088L61.7739 56.2151V60.8932H60.3545V53.7869H61.8727L64.6076 58.4698V53.7869H66.027V60.8932ZM70.3246 60.8932H68.9102V55.2092H66.7786V53.7869H72.4512V55.2092H70.3246V60.8932Z" fill="white"/>
</svg>
